<?xml version="1.0" encoding="utf-8"?>
<!-- Generator: Adobe Illustrator 16.0.0, SVG Export Plug-In . SVG Version: 6.00 Build 0)  -->
<!DOCTYPE svg PUBLIC "-//W3C//DTD SVG 1.1//EN" "http://www.w3.org/Graphics/SVG/1.1/DTD/svg11.dtd">
<svg version="1.1"
	 id="svg5467" xmlns:sodipodi="http://sodipodi.sourceforge.net/DTD/sodipodi-0.dtd" xmlns:svg="http://www.w3.org/2000/svg" xmlns:dc="http://purl.org/dc/elements/1.1/" xmlns:inkscape="http://www.inkscape.org/namespaces/inkscape" xmlns:cc="http://creativecommons.org/ns#" xmlns:rdf="http://www.w3.org/1999/02/22-rdf-syntax-ns#" inkscape:version="0.48.3.1 r9886" sodipodi:docname="loupe.svg"
	 xmlns="http://www.w3.org/2000/svg" xmlns:xlink="http://www.w3.org/1999/xlink" x="0px" y="0px" width="100px" height="100px"
	 viewBox="11.356 13.684 100 100" enable-background="new 11.356 13.684 100 100" xml:space="preserve">
<path id="path10854" fill="#000" inkscape:export-filename="/home/maksim/Dropbox/Public/region/icons/search.png" inkscape:export-ydpi="49.5" inkscape:export-xdpi="49.5" inkscape:connector-curvature="0" d="
	M80.048,13.684c-17.29,0-31.307,14.017-31.307,31.308c0,7.003,2.326,13.417,6.21,18.631L13.35,101.992
	c-2.658,2.657-2.658,7.041,0,9.698c2.658,2.658,6.956,2.658,9.613,0l38.369-41.602c5.22,3.897,11.701,6.211,18.716,6.211
	c17.291,0,31.308-14.018,31.308-31.308S97.339,13.684,80.048,13.684z M80.048,19.129c14.284,0,25.863,11.579,25.863,25.863
	S94.332,70.854,80.048,70.854S54.186,59.275,54.186,44.992S65.764,19.129,80.048,19.129z"/>
</svg>
